# Goxel 0.11.1
v -1 0 5 1.000000 1.000000 1.000000
v 0 0 5 1.000000 1.000000 1.000000
v 0 1 5 1.000000 1.000000 1.000000
v -1 1 5 1.000000 1.000000 1.000000
v 0 0 4 1.000000 1.000000 1.000000
v -1 0 4 1.000000 1.000000 1.000000
v -1 1 4 1.000000 1.000000 1.000000
v 0 1 4 1.000000 1.000000 1.000000
v -5 0 3 1.000000 1.000000 1.000000
v -4 0 3 1.000000 1.000000 1.000000
v -4 1 3 1.000000 1.000000 1.000000
v -5 1 3 1.000000 1.000000 1.000000
v -4 0 2 1.000000 1.000000 1.000000
v -5 0 2 1.000000 1.000000 1.000000
v -5 1 2 1.000000 1.000000 1.000000
v -4 1 2 1.000000 1.000000 1.000000
v -3 0 3 1.000000 1.000000 1.000000
v -3 1 3 1.000000 1.000000 1.000000
v -3 0 2 1.000000 1.000000 1.000000
v -2 0 3 1.000000 1.000000 1.000000
v -2 1 3 1.000000 1.000000 1.000000
v -2 0 2 1.000000 1.000000 1.000000
v -3 1 2 1.000000 1.000000 1.000000
v -2 1 2 1.000000 1.000000 1.000000
v -1 0 3 1.000000 1.000000 1.000000
v -1 1 3 1.000000 1.000000 1.000000
v -1 0 2 1.000000 1.000000 1.000000
v -1 1 2 1.000000 1.000000 1.000000
v 0 0 3 1.000000 1.000000 1.000000
v 0 1 3 1.000000 1.000000 1.000000
v 0 0 2 1.000000 1.000000 1.000000
v 0 1 2 1.000000 1.000000 1.000000
v -3 0 1 1.000000 1.000000 1.000000
v -4 0 1 1.000000 1.000000 1.000000
v -4 1 1 1.000000 1.000000 1.000000
v -3 1 1 1.000000 1.000000 1.000000
v -1 0 1 1.000000 1.000000 1.000000
v 0 0 1 1.000000 1.000000 1.000000
v 0 1 1 1.000000 1.000000 1.000000
v -1 1 1 1.000000 1.000000 1.000000
v -1 0 0 1.000000 1.000000 1.000000
v 0 0 0 1.000000 1.000000 1.000000
v 0 1 0 1.000000 1.000000 1.000000
v -1 1 0 1.000000 1.000000 1.000000
v -4 2 3 1.000000 1.000000 1.000000
v -5 2 3 1.000000 1.000000 1.000000
v -5 2 2 1.000000 1.000000 1.000000
v -4 2 2 1.000000 1.000000 1.000000
v -3 2 3 1.000000 1.000000 1.000000
v -3 2 2 1.000000 1.000000 1.000000
v -4 2 1 1.000000 1.000000 1.000000
v -3 2 1 1.000000 1.000000 1.000000
v -3 3 3 1.000000 1.000000 1.000000
v -4 3 3 1.000000 1.000000 1.000000
v -4 3 2 1.000000 1.000000 1.000000
v -3 3 2 1.000000 1.000000 1.000000
v -3 4 3 1.000000 1.000000 1.000000
v -4 4 3 1.000000 1.000000 1.000000
v -4 4 2 1.000000 1.000000 1.000000
v -3 4 2 1.000000 1.000000 1.000000
v -4 4 4 1.000000 1.000000 1.000000
v -3 4 4 1.000000 1.000000 1.000000
v -3 5 4 1.000000 1.000000 1.000000
v -4 5 4 1.000000 1.000000 1.000000
v -3 5 3 1.000000 1.000000 1.000000
v -4 5 3 1.000000 1.000000 1.000000
v -2 4 4 1.000000 1.000000 1.000000
v -2 5 4 1.000000 1.000000 1.000000
v -2 4 3 1.000000 1.000000 1.000000
v -2 5 3 1.000000 1.000000 1.000000
v -2 4 4 0.600000 0.898039 0.313725
v -1 4 4 0.600000 0.898039 0.313725
v -1 5 4 0.600000 0.898039 0.313725
v -2 5 4 0.600000 0.898039 0.313725
v -2 4 3 0.600000 0.898039 0.313725
v -1 4 3 0.600000 0.898039 0.313725
v -1 5 3 0.600000 0.898039 0.313725
v -2 5 3 0.600000 0.898039 0.313725
v -4 5 2 1.000000 1.000000 1.000000
v -3 5 2 1.000000 1.000000 1.000000
v -2 4 2 1.000000 1.000000 1.000000
v -2 5 2 1.000000 1.000000 1.000000
v -1 4 2 1.000000 1.000000 1.000000
v -1 5 2 1.000000 1.000000 1.000000
v -1 4 3 1.000000 1.000000 1.000000
v 0 4 3 0.600000 0.898039 0.313725
v 0 5 3 0.600000 0.898039 0.313725
v 0 4 2 0.600000 0.898039 0.313725
v -1 4 2 0.600000 0.898039 0.313725
v -1 5 2 0.600000 0.898039 0.313725
v 0 5 2 0.600000 0.898039 0.313725
v -3 5 3 0.600000 0.898039 0.313725
v -2 6 3 0.600000 0.898039 0.313725
v -3 6 3 0.600000 0.898039 0.313725
v -2 5 2 0.600000 0.898039 0.313725
v -3 5 2 0.600000 0.898039 0.313725
v -3 6 2 0.600000 0.898039 0.313725
v -2 6 2 0.600000 0.898039 0.313725
v -1 6 3 0.600000 0.898039 0.313725
v -1 6 2 0.600000 0.898039 0.313725
v 0 6 3 0.600000 0.898039 0.313725
v 0 6 2 0.600000 0.898039 0.313725
v 1 0 4 1.000000 1.000000 1.000000
v 1 1 4 1.000000 1.000000 1.000000
v 1 0 3 1.000000 1.000000 1.000000
v 1 1 3 1.000000 1.000000 1.000000
v 2 0 4 1.000000 1.000000 1.000000
v 3 0 4 1.000000 1.000000 1.000000
v 3 1 4 1.000000 1.000000 1.000000
v 2 1 4 1.000000 1.000000 1.000000
v 2 0 3 1.000000 1.000000 1.000000
v 3 0 3 1.000000 1.000000 1.000000
v 3 1 3 1.000000 1.000000 1.000000
v 2 1 3 1.000000 1.000000 1.000000
v 4 0 4 1.000000 1.000000 1.000000
v 4 1 4 1.000000 1.000000 1.000000
v 4 0 3 1.000000 1.000000 1.000000
v 4 1 3 1.000000 1.000000 1.000000
v 1 0 2 1.000000 1.000000 1.000000
v 1 1 2 1.000000 1.000000 1.000000
v 2 0 2 1.000000 1.000000 1.000000
v 2 1 2 1.000000 1.000000 1.000000
v 3 0 2 1.000000 1.000000 1.000000
v 3 1 2 1.000000 1.000000 1.000000
v 1 2 3 1.000000 1.000000 1.000000
v 0 2 3 1.000000 1.000000 1.000000
v 1 2 2 1.000000 1.000000 1.000000
v 0 2 2 1.000000 1.000000 1.000000
v 3 2 3 1.000000 1.000000 1.000000
v 2 2 3 1.000000 1.000000 1.000000
v 2 2 2 1.000000 1.000000 1.000000
v 3 2 2 1.000000 1.000000 1.000000
v 1 1 1 1.000000 1.000000 1.000000
v 0 2 1 1.000000 1.000000 1.000000
v 1 2 1 1.000000 1.000000 1.000000
v 2 3 3 1.000000 1.000000 1.000000
v 1 3 3 1.000000 1.000000 1.000000
v 2 3 2 1.000000 1.000000 1.000000
v 1 3 2 1.000000 1.000000 1.000000
v 3 3 3 1.000000 1.000000 1.000000
v 3 3 2 1.000000 1.000000 1.000000
v 0 3 2 1.000000 1.000000 1.000000
v 0 3 1 1.000000 1.000000 1.000000
v 1 3 1 1.000000 1.000000 1.000000
v 2 2 1 1.000000 1.000000 1.000000
v 2 3 1 1.000000 1.000000 1.000000
v 1 4 3 0.600000 0.898039 0.313725
v 1 5 3 0.600000 0.898039 0.313725
v 1 4 2 0.600000 0.898039 0.313725
v 1 5 2 0.600000 0.898039 0.313725
v 2 4 3 0.600000 0.898039 0.313725
v 2 5 3 0.600000 0.898039 0.313725
v 2 4 2 0.600000 0.898039 0.313725
v 2 5 2 0.600000 0.898039 0.313725
v 0 5 4 0.600000 0.898039 0.313725
v 1 5 4 0.600000 0.898039 0.313725
v 1 6 4 0.600000 0.898039 0.313725
v 0 6 4 0.600000 0.898039 0.313725
v 1 6 3 0.600000 0.898039 0.313725
v 1 6 2 0.600000 0.898039 0.313725
v -1 0 -1 1.000000 1.000000 1.000000
v 0 0 -1 1.000000 1.000000 1.000000
v 0 1 -1 1.000000 1.000000 1.000000
v -1 1 -1 1.000000 1.000000 1.000000
v -1 0 -2 1.000000 1.000000 1.000000
v 0 0 -2 1.000000 1.000000 1.000000
v 0 1 -2 1.000000 1.000000 1.000000
v -1 1 -2 1.000000 1.000000 1.000000
v 0 0 -3 1.000000 1.000000 1.000000
v -1 0 -3 1.000000 1.000000 1.000000
v -1 1 -3 1.000000 1.000000 1.000000
v 0 1 -3 1.000000 1.000000 1.000000
vn 0 0 1
vn 0 0 -1
vn 0 -1 -0
vn 0 1 0
vn 1 0 0
vn -1 0 0
f 1//1 2//1 3//1 4//1
f 5//2 6//2 7//2 8//2
f 1//3 6//3 5//3 2//3
f 3//4 8//4 7//4 4//4
f 2//5 5//5 8//5 3//5
f 1//6 4//6 7//6 6//6
f 9//1 10//1 11//1 12//1
f 13//2 14//2 15//2 16//2
f 9//3 14//3 13//3 10//3
f 9//6 12//6 15//6 14//6
f 10//1 17//1 18//1 11//1
f 10//3 13//3 19//3 17//3
f 17//1 20//1 21//1 18//1
f 22//2 19//2 23//2 24//2
f 17//3 19//3 22//3 20//3
f 21//4 24//4 23//4 18//4
f 20//1 25//1 26//1 21//1
f 27//2 22//2 24//2 28//2
f 20//3 22//3 27//3 25//3
f 26//4 28//4 24//4 21//4
f 25//1 29//1 30//1 26//1
f 25//3 27//3 31//3 29//3
f 30//4 32//4 28//4 26//4
f 33//2 34//2 35//2 36//2
f 13//3 34//3 33//3 19//3
f 19//5 33//5 36//5 23//5
f 13//6 16//6 35//6 34//6
f 27//3 37//3 38//3 31//3
f 32//4 39//4 40//4 28//4
f 31//5 38//5 39//5 32//5
f 27//6 28//6 40//6 37//6
f 37//3 41//3 42//3 38//3
f 39//4 43//4 44//4 40//4
f 38//5 42//5 43//5 39//5
f 37//6 40//6 44//6 41//6
f 12//1 11//1 45//1 46//1
f 16//2 15//2 47//2 48//2
f 45//4 48//4 47//4 46//4
f 12//6 46//6 47//6 15//6
f 11//1 18//1 49//1 45//1
f 18//5 23//5 50//5 49//5
f 36//2 35//2 51//2 52//2
f 50//4 52//4 51//4 48//4
f 23//5 36//5 52//5 50//5
f 16//6 48//6 51//6 35//6
f 45//1 49//1 53//1 54//1
f 50//2 48//2 55//2 56//2
f 49//5 50//5 56//5 53//5
f 45//6 54//6 55//6 48//6
f 54//1 53//1 57//1 58//1
f 56//2 55//2 59//2 60//2
f 53//5 56//5 60//5 57//5
f 54//6 58//6 59//6 55//6
f 61//1 62//1 63//1 64//1
f 61//3 58//3 57//3 62//3
f 63//4 65//4 66//4 64//4
f 61//6 64//6 66//6 58//6
f 62//1 67//1 68//1 63//1
f 62//3 57//3 69//3 67//3
f 68//4 70//4 65//4 63//4
f 71//1 72//1 73//1 74//1
f 71//3 75//3 76//3 72//3
f 73//4 77//4 78//4 74//4
f 72//5 76//5 77//5 73//5
f 60//2 59//2 79//2 80//2
f 65//4 80//4 79//4 66//4
f 58//6 66//6 79//6 59//6
f 81//2 60//2 80//2 82//2
f 57//3 60//3 81//3 69//3
f 83//2 81//2 82//2 84//2
f 69//3 81//3 83//3 85//3
f 76//1 86//1 87//1 77//1
f 88//2 89//2 90//2 91//2
f 76//3 89//3 88//3 86//3
f 92//1 78//1 93//1 94//1
f 95//2 96//2 97//2 98//2
f 93//4 98//4 97//4 94//4
f 92//6 94//6 97//6 96//6
f 78//1 77//1 99//1 93//1
f 90//2 95//2 98//2 100//2
f 99//4 100//4 98//4 93//4
f 77//1 87//1 101//1 99//1
f 91//2 90//2 100//2 102//2
f 101//4 102//4 100//4 99//4
f 5//1 103//1 104//1 8//1
f 5//3 29//3 105//3 103//3
f 104//4 106//4 30//4 8//4
f 103//5 105//5 106//5 104//5
f 5//6 8//6 30//6 29//6
f 107//1 108//1 109//1 110//1
f 107//3 111//3 112//3 108//3
f 109//4 113//4 114//4 110//4
f 107//6 110//6 114//6 111//6
f 108//1 115//1 116//1 109//1
f 117//2 112//2 113//2 118//2
f 108//3 112//3 117//3 115//3
f 116//4 118//4 113//4 109//4
f 115//5 117//5 118//5 116//5
f 119//2 31//2 32//2 120//2
f 29//3 31//3 119//3 105//3
f 105//1 111//1 114//1 106//1
f 121//2 119//2 120//2 122//2
f 105//3 119//3 121//3 111//3
f 114//4 122//4 120//4 106//4
f 123//2 121//2 122//2 124//2
f 111//3 121//3 123//3 112//3
f 112//5 123//5 124//5 113//5
f 30//1 106//1 125//1 126//1
f 125//4 127//4 128//4 126//4
f 106//5 120//5 127//5 125//5
f 30//6 126//6 128//6 32//6
f 114//1 113//1 129//1 130//1
f 124//2 122//2 131//2 132//2
f 113//5 124//5 132//5 129//5
f 114//6 130//6 131//6 122//6
f 133//2 39//2 134//2 135//2
f 32//3 39//3 133//3 120//3
f 120//5 133//5 135//5 127//5
f 32//6 128//6 134//6 39//6
f 125//1 130//1 136//1 137//1
f 125//3 127//3 131//3 130//3
f 136//4 138//4 139//4 137//4
f 125//6 137//6 139//6 127//6
f 130//1 129//1 140//1 136//1
f 132//2 131//2 138//2 141//2
f 140//4 141//4 138//4 136//4
f 129//5 132//5 141//5 140//5
f 128//1 127//1 139//1 142//1
f 135//2 134//2 143//2 144//2
f 139//4 144//4 143//4 142//4
f 128//6 142//6 143//6 134//6
f 145//2 135//2 144//2 146//2
f 127//3 135//3 145//3 131//3
f 138//4 146//4 144//4 139//4
f 131//5 145//5 146//5 138//5
f 86//1 147//1 148//1 87//1
f 149//2 88//2 91//2 150//2
f 86//3 88//3 149//3 147//3
f 147//1 151//1 152//1 148//1
f 153//2 149//2 150//2 154//2
f 147//3 149//3 153//3 151//3
f 152//4 154//4 150//4 148//4
f 151//5 153//5 154//5 152//5
f 155//1 156//1 157//1 158//1
f 155//3 87//3 148//3 156//3
f 157//4 159//4 101//4 158//4
f 156//5 148//5 159//5 157//5
f 155//6 158//6 101//6 87//6
f 150//2 91//2 102//2 160//2
f 159//4 160//4 102//4 101//4
f 148//5 150//5 160//5 159//5
f 41//3 161//3 162//3 42//3
f 43//4 163//4 164//4 44//4
f 42//5 162//5 163//5 43//5
f 41//6 44//6 164//6 161//6
f 161//3 165//3 166//3 162//3
f 163//4 167//4 168//4 164//4
f 162//5 166//5 167//5 163//5
f 161//6 164//6 168//6 165//6
f 169//2 170//2 171//2 172//2
f 165//3 170//3 169//3 166//3
f 167//4 172//4 171//4 168//4
f 166//5 169//5 172//5 167//5
f 165//6 168//6 171//6 170//6
