# Goxel 0.11.1
v -11 0 11 0.415686 0.745098 0.188235
v -10 0 11 0.415686 0.745098 0.188235
v -10 1 11 0.415686 0.745098 0.188235
v -11 1 11 0.415686 0.745098 0.188235
v -11 0 10 0.415686 0.745098 0.188235
v -10 0 10 0.415686 0.745098 0.188235
v -10 1 10 0.415686 0.745098 0.188235
v -11 1 10 0.415686 0.745098 0.188235
v -9 0 11 0.415686 0.745098 0.188235
v -9 1 11 0.415686 0.745098 0.188235
v -9 0 10 0.415686 0.745098 0.188235
v -9 1 10 0.415686 0.745098 0.188235
v -8 0 11 0.415686 0.745098 0.188235
v -8 1 11 0.415686 0.745098 0.188235
v -8 0 10 0.415686 0.745098 0.188235
v -8 1 10 0.415686 0.745098 0.188235
v -7 0 11 0.415686 0.745098 0.188235
v -7 1 11 0.415686 0.745098 0.188235
v -7 0 10 0.415686 0.745098 0.188235
v -7 1 10 0.415686 0.745098 0.188235
v -6 0 11 0.415686 0.745098 0.188235
v -6 1 11 0.415686 0.745098 0.188235
v -6 0 10 0.415686 0.745098 0.188235
v -6 1 10 0.415686 0.745098 0.188235
v -5 0 11 0.415686 0.745098 0.188235
v -5 1 11 0.415686 0.745098 0.188235
v -5 0 10 0.415686 0.745098 0.188235
v -5 1 10 0.415686 0.745098 0.188235
v -4 0 11 0.415686 0.745098 0.188235
v -4 1 11 0.415686 0.745098 0.188235
v -4 0 10 0.415686 0.745098 0.188235
v -4 1 10 0.415686 0.745098 0.188235
v -3 0 11 0.415686 0.745098 0.188235
v -3 1 11 0.415686 0.745098 0.188235
v -3 0 10 0.415686 0.745098 0.188235
v -3 1 10 0.415686 0.745098 0.188235
v -2 0 11 0.415686 0.745098 0.188235
v -2 1 11 0.415686 0.745098 0.188235
v -2 0 10 0.415686 0.745098 0.188235
v -2 1 10 0.415686 0.745098 0.188235
v -11 0 9 0.415686 0.745098 0.188235
v -10 0 9 0.415686 0.745098 0.188235
v -10 1 9 0.415686 0.745098 0.188235
v -11 1 9 0.415686 0.745098 0.188235
v -9 0 9 0.415686 0.745098 0.188235
v -9 1 9 0.415686 0.745098 0.188235
v -8 0 9 0.415686 0.745098 0.188235
v -8 1 9 0.415686 0.745098 0.188235
v -7 0 9 0.415686 0.745098 0.188235
v -7 1 9 0.415686 0.745098 0.188235
v -6 0 9 0.415686 0.745098 0.188235
v -6 1 9 0.415686 0.745098 0.188235
v -5 0 9 0.415686 0.745098 0.188235
v -5 1 9 0.415686 0.745098 0.188235
v -4 0 9 0.415686 0.745098 0.188235
v -4 1 9 0.415686 0.745098 0.188235
v -3 0 9 0.415686 0.745098 0.188235
v -3 1 9 0.415686 0.745098 0.188235
v -2 0 9 0.415686 0.745098 0.188235
v -2 1 9 0.415686 0.745098 0.188235
v -11 0 8 0.415686 0.745098 0.188235
v -10 0 8 0.415686 0.745098 0.188235
v -10 1 8 0.415686 0.745098 0.188235
v -11 1 8 0.415686 0.745098 0.188235
v -9 0 8 0.415686 0.745098 0.188235
v -9 1 8 0.415686 0.745098 0.188235
v -8 0 8 0.415686 0.745098 0.188235
v -7 0 8 0.415686 0.745098 0.188235
v -6 0 8 0.415686 0.745098 0.188235
v -5 0 8 0.415686 0.745098 0.188235
v -5 1 8 0.415686 0.745098 0.188235
v -6 1 8 0.415686 0.745098 0.188235
v -4 0 8 0.415686 0.745098 0.188235
v -4 1 8 0.415686 0.745098 0.188235
v -3 0 8 0.415686 0.745098 0.188235
v -3 1 8 0.415686 0.745098 0.188235
v -2 0 8 0.415686 0.745098 0.188235
v -2 1 8 0.415686 0.745098 0.188235
v -11 0 7 0.415686 0.745098 0.188235
v -10 0 7 0.415686 0.745098 0.188235
v -10 1 7 0.415686 0.745098 0.188235
v -11 1 7 0.415686 0.745098 0.188235
v -9 0 7 0.415686 0.745098 0.188235
v -9 1 7 0.415686 0.745098 0.188235
v -8 0 7 0.415686 0.745098 0.188235
v -7 0 7 0.415686 0.745098 0.188235
v -7 1 8 0.415686 0.745098 0.188235
v -7 1 7 0.415686 0.745098 0.188235
v -8 1 7 0.415686 0.745098 0.188235
v -8 1 8 0.415686 0.745098 0.188235
v -6 0 7 0.415686 0.745098 0.188235
v -6 1 7 0.415686 0.745098 0.188235
v -5 0 7 0.415686 0.745098 0.188235
v -5 1 7 0.415686 0.745098 0.188235
v -4 0 7 0.415686 0.745098 0.188235
v -4 1 7 0.415686 0.745098 0.188235
v -3 0 7 0.415686 0.745098 0.188235
v -3 1 7 0.415686 0.745098 0.188235
v -2 0 7 0.415686 0.745098 0.188235
v -2 1 7 0.415686 0.745098 0.188235
v -11 0 6 0.415686 0.745098 0.188235
v -10 0 6 0.415686 0.745098 0.188235
v -10 1 6 0.415686 0.745098 0.188235
v -11 1 6 0.415686 0.745098 0.188235
v -9 0 6 0.415686 0.745098 0.188235
v -9 1 6 0.415686 0.745098 0.188235
v -8 0 6 0.415686 0.745098 0.188235
v -7 0 6 0.415686 0.745098 0.188235
v -7 1 6 0.415686 0.745098 0.188235
v -8 1 6 0.415686 0.745098 0.188235
v -6 0 6 0.415686 0.745098 0.188235
v -6 1 6 0.415686 0.745098 0.188235
v -5 0 6 0.415686 0.745098 0.188235
v -5 1 6 0.415686 0.745098 0.188235
v -4 0 6 0.415686 0.745098 0.188235
v -4 1 6 0.415686 0.745098 0.188235
v -3 0 6 0.415686 0.745098 0.188235
v -3 1 6 0.415686 0.745098 0.188235
v -2 0 6 0.415686 0.745098 0.188235
v -2 1 6 0.415686 0.745098 0.188235
v -11 0 5 0.415686 0.745098 0.188235
v -10 0 5 0.415686 0.745098 0.188235
v -10 1 5 0.415686 0.745098 0.188235
v -11 1 5 0.415686 0.745098 0.188235
v -9 0 5 0.415686 0.745098 0.188235
v -9 1 5 0.415686 0.745098 0.188235
v -8 0 5 0.415686 0.745098 0.188235
v -7 0 5 0.415686 0.745098 0.188235
v -7 1 5 0.415686 0.745098 0.188235
v -8 1 5 0.415686 0.745098 0.188235
v -6 0 5 0.415686 0.745098 0.188235
v -6 1 5 0.415686 0.745098 0.188235
v -5 0 5 0.415686 0.745098 0.188235
v -5 1 5 0.415686 0.745098 0.188235
v -4 0 5 0.415686 0.745098 0.188235
v -4 1 5 0.415686 0.745098 0.188235
v -3 0 5 0.415686 0.745098 0.188235
v -3 1 5 0.415686 0.745098 0.188235
v -2 0 5 0.415686 0.745098 0.188235
v -2 1 5 0.415686 0.745098 0.188235
v -11 0 4 0.415686 0.745098 0.188235
v -10 0 4 0.415686 0.745098 0.188235
v -10 1 4 0.415686 0.745098 0.188235
v -11 1 4 0.415686 0.745098 0.188235
v -9 0 4 0.415686 0.745098 0.188235
v -9 1 4 0.415686 0.745098 0.188235
v -8 0 4 0.415686 0.745098 0.188235
v -8 1 4 0.415686 0.745098 0.188235
v -7 0 4 0.415686 0.745098 0.188235
v -7 1 4 0.415686 0.745098 0.188235
v -6 0 4 0.415686 0.745098 0.188235
v -6 1 4 0.415686 0.745098 0.188235
v -5 0 4 0.415686 0.745098 0.188235
v -5 1 4 0.415686 0.745098 0.188235
v -4 0 4 0.415686 0.745098 0.188235
v -4 1 4 0.415686 0.745098 0.188235
v -3 0 4 0.415686 0.745098 0.188235
v -3 1 4 0.415686 0.745098 0.188235
v -2 0 4 0.415686 0.745098 0.188235
v -2 1 4 0.415686 0.745098 0.188235
v -10 0 3 0.415686 0.745098 0.188235
v -11 0 3 0.415686 0.745098 0.188235
v -11 1 3 0.415686 0.745098 0.188235
v -10 1 3 0.415686 0.745098 0.188235
v -9 0 3 0.415686 0.745098 0.188235
v -9 1 3 0.415686 0.745098 0.188235
v -8 0 3 0.415686 0.745098 0.188235
v -8 1 3 0.415686 0.745098 0.188235
v -7 0 3 0.415686 0.745098 0.188235
v -7 1 3 0.415686 0.745098 0.188235
v -6 0 3 0.415686 0.745098 0.188235
v -6 1 3 0.415686 0.745098 0.188235
v -5 0 3 0.415686 0.745098 0.188235
v -5 1 3 0.415686 0.745098 0.188235
v -4 0 3 0.415686 0.745098 0.188235
v -4 1 3 0.415686 0.745098 0.188235
v -3 0 3 0.415686 0.745098 0.188235
v -3 1 3 0.415686 0.745098 0.188235
v -2 0 3 0.415686 0.745098 0.188235
v -2 1 3 0.415686 0.745098 0.188235
v -9 1 9 0.674510 0.196078 0.196078
v -8 1 9 0.674510 0.196078 0.196078
v -8 2 9 0.674510 0.196078 0.196078
v -9 2 9 0.674510 0.196078 0.196078
v -8 2 8 0.674510 0.196078 0.196078
v -9 2 8 0.674510 0.196078 0.196078
v -9 1 8 0.674510 0.196078 0.196078
v -7 1 9 0.674510 0.196078 0.196078
v -7 2 9 0.674510 0.196078 0.196078
v -7 1 8 0.674510 0.196078 0.196078
v -8 1 8 0.674510 0.196078 0.196078
v -7 2 8 0.674510 0.196078 0.196078
v -6 1 9 0.674510 0.196078 0.196078
v -6 2 9 0.674510 0.196078 0.196078
v -6 1 8 0.674510 0.196078 0.196078
v -6 2 8 0.674510 0.196078 0.196078
v -8 1 7 0.674510 0.196078 0.196078
v -8 2 7 0.674510 0.196078 0.196078
v -9 2 7 0.674510 0.196078 0.196078
v -9 1 7 0.674510 0.196078 0.196078
v -8 1 6 0.674510 0.196078 0.196078
v -8 2 6 0.674510 0.196078 0.196078
v -9 2 6 0.674510 0.196078 0.196078
v -9 1 6 0.674510 0.196078 0.196078
v -3 1 7 0.984314 0.949020 0.211765
v -2 1 7 0.984314 0.949020 0.211765
v -2 2 7 0.984314 0.949020 0.211765
v -3 2 7 0.984314 0.949020 0.211765
v -2 1 6 0.984314 0.949020 0.211765
v -2 2 6 0.984314 0.949020 0.211765
v -3 2 6 0.984314 0.949020 0.211765
v -3 1 6 0.984314 0.949020 0.211765
v -8 1 5 0.674510 0.196078 0.196078
v -9 1 5 0.674510 0.196078 0.196078
v -9 2 5 0.674510 0.196078 0.196078
v -8 2 5 0.674510 0.196078 0.196078
v -2 1 5 0.984314 0.949020 0.211765
v -2 2 5 0.984314 0.949020 0.211765
v -3 2 5 0.984314 0.949020 0.211765
v -3 1 5 0.984314 0.949020 0.211765
v -2 1 4 0.984314 0.949020 0.211765
v -2 2 4 0.984314 0.949020 0.211765
v -3 2 4 0.984314 0.949020 0.211765
v -3 1 4 0.984314 0.949020 0.211765
v -2 1 3 0.984314 0.949020 0.211765
v -3 1 3 0.984314 0.949020 0.211765
v -3 2 3 0.984314 0.949020 0.211765
v -2 2 3 0.984314 0.949020 0.211765
v -7 3 9 0.674510 0.196078 0.196078
v -8 3 9 0.674510 0.196078 0.196078
v -8 3 8 0.674510 0.196078 0.196078
v -7 3 8 0.674510 0.196078 0.196078
v -6 3 9 0.674510 0.196078 0.196078
v -6 3 8 0.674510 0.196078 0.196078
v -9 3 8 0.674510 0.196078 0.196078
v -8 3 7 0.674510 0.196078 0.196078
v -9 3 7 0.674510 0.196078 0.196078
v -9 3 6 0.674510 0.196078 0.196078
v -8 3 6 0.674510 0.196078 0.196078
v -2 3 7 0.984314 0.949020 0.211765
v -3 3 7 0.984314 0.949020 0.211765
v -2 3 6 0.984314 0.949020 0.211765
v -3 3 6 0.984314 0.949020 0.211765
v -2 3 5 0.984314 0.949020 0.211765
v -3 3 5 0.984314 0.949020 0.211765
v -2 3 4 0.984314 0.949020 0.211765
v -3 3 4 0.984314 0.949020 0.211765
v -3 3 3 0.984314 0.949020 0.211765
v -2 3 3 0.984314 0.949020 0.211765
v -8 4 8 0.674510 0.196078 0.196078
v -9 4 8 0.674510 0.196078 0.196078
v -8 4 7 0.674510 0.196078 0.196078
v -9 4 7 0.674510 0.196078 0.196078
v -9 4 6 0.674510 0.196078 0.196078
v -8 4 6 0.674510 0.196078 0.196078
v -2 4 7 0.984314 0.949020 0.211765
v -3 4 7 0.984314 0.949020 0.211765
v -2 4 6 0.984314 0.949020 0.211765
v -3 4 6 0.984314 0.949020 0.211765
v -2 4 5 0.984314 0.949020 0.211765
v -3 4 5 0.984314 0.949020 0.211765
v -3 4 4 0.984314 0.949020 0.211765
v -2 4 4 0.984314 0.949020 0.211765
v -8 5 8 0.674510 0.196078 0.196078
v -9 5 8 0.674510 0.196078 0.196078
v -8 5 7 0.674510 0.196078 0.196078
v -9 5 7 0.674510 0.196078 0.196078
v -9 5 6 0.674510 0.196078 0.196078
v -8 5 6 0.674510 0.196078 0.196078
v -8 6 8 0.674510 0.196078 0.196078
v -9 6 8 0.674510 0.196078 0.196078
v -8 6 7 0.674510 0.196078 0.196078
v -9 6 7 0.674510 0.196078 0.196078
v -9 6 6 0.674510 0.196078 0.196078
v -8 6 6 0.674510 0.196078 0.196078
vn 0 0 1
vn 0 -1 -0
vn 0 1 0
vn -1 0 0
vn 1 0 0
vn 0 0 -1
f 1//1 2//1 3//1 4//1
f 1//2 5//2 6//2 2//2
f 3//3 7//3 8//3 4//3
f 1//4 4//4 8//4 5//4
f 2//1 9//1 10//1 3//1
f 2//2 6//2 11//2 9//2
f 10//3 12//3 7//3 3//3
f 9//1 13//1 14//1 10//1
f 9//2 11//2 15//2 13//2
f 14//3 16//3 12//3 10//3
f 13//1 17//1 18//1 14//1
f 13//2 15//2 19//2 17//2
f 18//3 20//3 16//3 14//3
f 17//1 21//1 22//1 18//1
f 17//2 19//2 23//2 21//2
f 22//3 24//3 20//3 18//3
f 21//1 25//1 26//1 22//1
f 21//2 23//2 27//2 25//2
f 26//3 28//3 24//3 22//3
f 25//1 29//1 30//1 26//1
f 25//2 27//2 31//2 29//2
f 30//3 32//3 28//3 26//3
f 29//1 33//1 34//1 30//1
f 29//2 31//2 35//2 33//2
f 34//3 36//3 32//3 30//3
f 33//1 37//1 38//1 34//1
f 33//2 35//2 39//2 37//2
f 38//3 40//3 36//3 34//3
f 37//5 39//5 40//5 38//5
f 5//2 41//2 42//2 6//2
f 7//3 43//3 44//3 8//3
f 5//4 8//4 44//4 41//4
f 6//2 42//2 45//2 11//2
f 12//3 46//3 43//3 7//3
f 11//2 45//2 47//2 15//2
f 16//3 48//3 46//3 12//3
f 15//2 47//2 49//2 19//2
f 20//3 50//3 48//3 16//3
f 19//2 49//2 51//2 23//2
f 24//3 52//3 50//3 20//3
f 23//2 51//2 53//2 27//2
f 28//3 54//3 52//3 24//3
f 27//2 53//2 55//2 31//2
f 32//3 56//3 54//3 28//3
f 31//2 55//2 57//2 35//2
f 36//3 58//3 56//3 32//3
f 35//2 57//2 59//2 39//2
f 40//3 60//3 58//3 36//3
f 39//5 59//5 60//5 40//5
f 41//2 61//2 62//2 42//2
f 43//3 63//3 64//3 44//3
f 41//4 44//4 64//4 61//4
f 42//2 62//2 65//2 45//2
f 46//3 66//3 63//3 43//3
f 45//2 65//2 67//2 47//2
f 47//2 67//2 68//2 49//2
f 49//2 68//2 69//2 51//2
f 51//2 69//2 70//2 53//2
f 54//3 71//3 72//3 52//3
f 53//2 70//2 73//2 55//2
f 56//3 74//3 71//3 54//3
f 55//2 73//2 75//2 57//2
f 58//3 76//3 74//3 56//3
f 57//2 75//2 77//2 59//2
f 60//3 78//3 76//3 58//3
f 59//5 77//5 78//5 60//5
f 61//2 79//2 80//2 62//2
f 63//3 81//3 82//3 64//3
f 61//4 64//4 82//4 79//4
f 62//2 80//2 83//2 65//2
f 66//3 84//3 81//3 63//3
f 65//2 83//2 85//2 67//2
f 67//2 85//2 86//2 68//2
f 87//3 88//3 89//3 90//3
f 68//2 86//2 91//2 69//2
f 72//3 92//3 88//3 87//3
f 69//2 91//2 93//2 70//2
f 71//3 94//3 92//3 72//3
f 70//2 93//2 95//2 73//2
f 74//3 96//3 94//3 71//3
f 73//2 95//2 97//2 75//2
f 76//3 98//3 96//3 74//3
f 75//2 97//2 99//2 77//2
f 78//3 100//3 98//3 76//3
f 77//5 99//5 100//5 78//5
f 79//2 101//2 102//2 80//2
f 81//3 103//3 104//3 82//3
f 79//4 82//4 104//4 101//4
f 80//2 102//2 105//2 83//2
f 84//3 106//3 103//3 81//3
f 83//2 105//2 107//2 85//2
f 85//2 107//2 108//2 86//2
f 88//3 109//3 110//3 89//3
f 86//2 108//2 111//2 91//2
f 92//3 112//3 109//3 88//3
f 91//2 111//2 113//2 93//2
f 94//3 114//3 112//3 92//3
f 93//2 113//2 115//2 95//2
f 96//3 116//3 114//3 94//3
f 95//2 115//2 117//2 97//2
f 98//3 118//3 116//3 96//3
f 97//2 117//2 119//2 99//2
f 99//5 119//5 120//5 100//5
f 101//2 121//2 122//2 102//2
f 103//3 123//3 124//3 104//3
f 101//4 104//4 124//4 121//4
f 102//2 122//2 125//2 105//2
f 106//3 126//3 123//3 103//3
f 105//2 125//2 127//2 107//2
f 107//2 127//2 128//2 108//2
f 109//3 129//3 130//3 110//3
f 108//2 128//2 131//2 111//2
f 112//3 132//3 129//3 109//3
f 111//2 131//2 133//2 113//2
f 114//3 134//3 132//3 112//3
f 113//2 133//2 135//2 115//2
f 116//3 136//3 134//3 114//3
f 115//2 135//2 137//2 117//2
f 118//3 138//3 136//3 116//3
f 117//2 137//2 139//2 119//2
f 119//5 139//5 140//5 120//5
f 121//2 141//2 142//2 122//2
f 123//3 143//3 144//3 124//3
f 121//4 124//4 144//4 141//4
f 122//2 142//2 145//2 125//2
f 126//3 146//3 143//3 123//3
f 125//2 145//2 147//2 127//2
f 130//3 148//3 146//3 126//3
f 127//2 147//2 149//2 128//2
f 129//3 150//3 148//3 130//3
f 128//2 149//2 151//2 131//2
f 132//3 152//3 150//3 129//3
f 131//2 151//2 153//2 133//2
f 134//3 154//3 152//3 132//3
f 133//2 153//2 155//2 135//2
f 136//3 156//3 154//3 134//3
f 135//2 155//2 157//2 137//2
f 138//3 158//3 156//3 136//3
f 137//2 157//2 159//2 139//2
f 139//5 159//5 160//5 140//5
f 161//6 162//6 163//6 164//6
f 141//2 162//2 161//2 142//2
f 143//3 164//3 163//3 144//3
f 141//4 144//4 163//4 162//4
f 165//6 161//6 164//6 166//6
f 142//2 161//2 165//2 145//2
f 146//3 166//3 164//3 143//3
f 167//6 165//6 166//6 168//6
f 145//2 165//2 167//2 147//2
f 148//3 168//3 166//3 146//3
f 169//6 167//6 168//6 170//6
f 147//2 167//2 169//2 149//2
f 150//3 170//3 168//3 148//3
f 171//6 169//6 170//6 172//6
f 149//2 169//2 171//2 151//2
f 152//3 172//3 170//3 150//3
f 173//6 171//6 172//6 174//6
f 151//2 171//2 173//2 153//2
f 154//3 174//3 172//3 152//3
f 175//6 173//6 174//6 176//6
f 153//2 173//2 175//2 155//2
f 156//3 176//3 174//3 154//3
f 177//6 175//6 176//6 178//6
f 155//2 175//2 177//2 157//2
f 158//3 178//3 176//3 156//3
f 179//6 177//6 178//6 180//6
f 157//2 177//2 179//2 159//2
f 159//5 179//5 180//5 160//5
f 181//1 182//1 183//1 184//1
f 183//3 185//3 186//3 184//3
f 181//4 184//4 186//4 187//4
f 182//1 188//1 189//1 183//1
f 190//6 191//6 185//6 192//6
f 188//1 193//1 194//1 189//1
f 195//6 190//6 192//6 196//6
f 193//5 195//5 196//5 194//5
f 191//5 197//5 198//5 185//5
f 187//4 186//4 199//4 200//4
f 197//5 201//5 202//5 198//5
f 200//4 199//4 203//4 204//4
f 205//1 206//1 207//1 208//1
f 206//5 209//5 210//5 207//5
f 205//4 208//4 211//4 212//4
f 213//6 214//6 215//6 216//6
f 202//3 216//3 215//3 203//3
f 201//5 213//5 216//5 202//5
f 204//4 203//4 215//4 214//4
f 209//5 217//5 218//5 210//5
f 212//4 211//4 219//4 220//4
f 217//5 221//5 222//5 218//5
f 220//4 219//4 223//4 224//4
f 225//6 226//6 227//6 228//6
f 221//5 225//5 228//5 222//5
f 224//4 223//4 227//4 226//4
f 183//1 189//1 229//1 230//1
f 192//6 185//6 231//6 232//6
f 229//3 232//3 231//3 230//3
f 183//4 230//4 231//4 185//4
f 189//1 194//1 233//1 229//1
f 196//6 192//6 232//6 234//6
f 233//3 234//3 232//3 229//3
f 194//5 196//5 234//5 233//5
f 186//1 185//1 231//1 235//1
f 185//5 198//5 236//5 231//5
f 186//4 235//4 237//4 199//4
f 202//6 203//6 238//6 239//6
f 198//5 202//5 239//5 236//5
f 199//4 237//4 238//4 203//4
f 208//1 207//1 240//1 241//1
f 207//5 210//5 242//5 240//5
f 208//4 241//4 243//4 211//4
f 210//5 218//5 244//5 242//5
f 211//4 243//4 245//4 219//4
f 218//5 222//5 246//5 244//5
f 219//4 245//4 247//4 223//4
f 228//6 227//6 248//6 249//6
f 246//3 249//3 248//3 247//3
f 222//5 228//5 249//5 246//5
f 223//4 247//4 248//4 227//4
f 235//1 231//1 250//1 251//1
f 231//5 236//5 252//5 250//5
f 235//4 251//4 253//4 237//4
f 239//6 238//6 254//6 255//6
f 236//5 239//5 255//5 252//5
f 237//4 253//4 254//4 238//4
f 241//1 240//1 256//1 257//1
f 256//3 258//3 259//3 257//3
f 240//5 242//5 258//5 256//5
f 241//4 257//4 259//4 243//4
f 258//3 260//3 261//3 259//3
f 242//5 244//5 260//5 258//5
f 243//4 259//4 261//4 245//4
f 246//6 247//6 262//6 263//6
f 260//3 263//3 262//3 261//3
f 244//5 246//5 263//5 260//5
f 245//4 261//4 262//4 247//4
f 251//1 250//1 264//1 265//1
f 250//5 252//5 266//5 264//5
f 251//4 265//4 267//4 253//4
f 255//6 254//6 268//6 269//6
f 252//5 255//5 269//5 266//5
f 253//4 267//4 268//4 254//4
f 265//1 264//1 270//1 271//1
f 270//3 272//3 273//3 271//3
f 264//5 266//5 272//5 270//5
f 265//4 271//4 273//4 267//4
f 269//6 268//6 274//6 275//6
f 272//3 275//3 274//3 273//3
f 266//5 269//5 275//5 272//5
f 267//4 273//4 274//4 268//4
